<svg xmlns="http://www.w3.org/2000/svg" xmlns:xlink="http://www.w3.org/1999/xlink" x="0px" y="0px" viewBox="0 0 213 46.1" style="enable-background:new 0 0 213 46.1;" xml:space="preserve"><style type="text/css">	.st0{fill:none;}</style><g>	<g>		<path d="M67.5,13.3c-1.2-0.6-2.4-0.9-3.9-0.9h-4.4H58h-3.8V35h5v-8.2h4.4c1.4,0,2.7-0.3,3.9-0.9c1.2-0.6,2.1-1.4,2.7-2.5   c0.7-1.1,1-2.4,1-3.8c0-1.5-0.3-2.7-1-3.8C69.6,14.7,68.6,13.8,67.5,13.3z M65.8,21.4c-0.3,0.5-0.7,0.9-1.2,1.1   c-0.5,0.3-1.1,0.4-1.7,0.4h-3.7v-6.6h3.7c0.6,0,1.2,0.1,1.7,0.4c0.5,0.3,0.9,0.6,1.2,1.1c0.3,0.5,0.4,1.1,0.4,1.8   C66.2,20.3,66.1,20.9,65.8,21.4z"></path>		<path d="M90.4,24.9c1.2-0.6,2-1.3,2.7-2.3c0.6-1,1-2.1,1-3.5c0-1.3-0.3-2.5-1-3.5c-0.6-1-1.5-1.8-2.7-2.4   c-1.1-0.6-2.4-0.8-3.9-0.8h-4.2h-1.2h-3.8V35h5v-9.3h0.5l6.7,9.3h6l-7.2-9.5C89,25.4,89.7,25.2,90.4,24.9z M82.3,16.3h3.6   c1,0,1.8,0.3,2.3,0.8c0.5,0.5,0.8,1.2,0.8,2c0,0.9-0.3,1.6-0.8,2.1S86.9,22,85.9,22h-3.6V16.3z"></path>		<rect x="100.9" y="12.4" width="5" height="22.6"></rect>		<polygon points="127.7,26.1 117,12.4 113.4,12.4 113.4,35 118.5,35 118.5,21.5 129,35 132.7,35 132.7,12.4 127.7,12.4   "></polygon>		<polygon points="138.7,16.8 145.8,16.8 145.8,35 150.8,35 150.8,16.8 157.9,16.8 157.9,12.4 138.7,12.4   "></polygon>		<polygon points="175.5,24.8 167.5,12.4 163.9,12.4 163.9,35 168.9,35 168.9,22.5 173.8,30.1 177.1,30.1 182,22.5 182,35 187,35    187,12.4 183.4,12.4   "></polygon>		<polygon points="199.6,30.6 199.6,25.6 209.7,25.6 209.7,21.4 199.6,21.4 199.6,16.7 210.6,16.7 210.6,12.4 199.6,12.4    198.4,12.4 194.6,12.4 194.6,35 198.4,35 199.6,35 210.8,35 210.8,30.6   "></polygon>	</g>	<g>		<rect x="5.6" y="0" className="st0" width="42.4" height="46.1"></rect>	</g>	<g id="Path_177546">		<path d="M34.4,43c-0.4,0.3-0.9,0.2-1.1-0.2c-0.1-0.2-0.2-0.4-0.1-0.6v-5.9l8.8-4.2c0.7-0.4,1.2-1.2,1.3-2V13.3   c0.1-0.4-0.2-0.9-0.7-0.9c-0.2,0-0.4,0-0.6,0.1L28.1,19c-0.7,0.4-1.2,1.2-1.3,2v24.2c0.1,0.4-0.2,0.9-0.7,0.9   c-0.2,0-0.4,0-0.6-0.1l-3.2-1.5V18.9c0-0.8,0.5-1.6,1.3-2L35,11.5V9c0.1-0.4-0.2-0.9-0.7-0.9c-0.2,0-0.4,0-0.6,0.1L19.4,15   c-0.7,0.4-1.2,1.2-1.3,2v25.5l-4.3-2V14.9c0-0.8,0.5-1.6,1.3-2l11.4-5.4V5c0.1-0.4-0.2-0.9-0.7-0.9c-0.2,0-0.4,0-0.6,0.1L11,11   c-0.7,0.4-1.2,1.2-1.3,2v25.5l-2.8-1.3c-0.7-0.4-1.2-1.2-1.3-2V11c0-0.8,0.5-1.6,1.3-2l18.6-8.8c0.8-0.3,1.7-0.3,2.5,0L46.7,9   c0.7,0.4,1.2,1.2,1.3,2v24.2c0,0.8-0.5,1.6-1.3,2L34.4,43z M33.1,22.9v7.3l4.6-2.2v-7.3L33.1,22.9z"></path>	</g></g></svg>