<svg xmlns="http://www.w3.org/2000/svg" xmlns:xlink="http://www.w3.org/1999/xlink" x="0px" y="0px"
	 viewBox="0 0 20.5 19.5" style="enable-background:new 0 0 20.5 19.5;" xml:space="preserve">
<path d="M10.2,1c1.7-1,3.8-1.3,5.7-0.7c4.1,1.3,5.3,5.7,4.2,9.3c-1.7,5.5-9.2,9.7-9.5,9.8
	c-0.2,0.1-0.5,0.1-0.7,0c-0.3-0.2-7.7-4.2-9.5-9.8l0,0c-1.1-3.5,0.1-7.9,4.2-9.3C6.5-0.3,8.5,0,10.2,1z M5,1.8
	C1.8,2.8,0.9,6.3,1.8,9.1c1.4,4.4,6.9,7.9,8.4,8.8c1.5-0.9,7.1-4.4,8.4-8.8c0.9-2.8,0.1-6.3-3.2-7.4c-1.6-0.5-3.4-0.2-4.7,0.8
	c-0.3,0.2-0.6,0.2-0.9,0C8.4,1.5,6.7,1.2,5,1.8L5,1.8z M14.5,3.7c1.4,0.4,2.3,1.7,2.4,3.1c0,0.4-0.3,0.8-0.7,0.8c0,0,0,0-0.1,0
	c-0.4,0-0.7-0.3-0.7-0.7c-0.1-0.8-0.6-1.5-1.4-1.8c-0.4-0.1-0.6-0.5-0.5-0.9S14.1,3.6,14.5,3.7L14.5,3.7L14.5,3.7z"/>
</svg>
