<svg xmlns="http://www.w3.org/2000/svg" xmlns:xlink="http://www.w3.org/1999/xlink" x="0px" y="0px"
	 viewBox="0 0 100 100" style="enable-background:new 0 0 100 100;" xml:space="preserve">
<path d="M92.6,61.8c-2.8,3-4.3,7-4.3,11.1c-0.1,5.6-1.9,10.6-6.6,13.6c-2.4,1.9-5.9,2.1-8.9,2.2c-4.3,0-8.5,1.7-11.6,4.7
	c-6.7,6.2-16,6.1-22.7,0c-3.1-3-7.3-4.7-11.6-4.7c-3.5,0-6.7-0.4-9.4-2.8c-4.4-3-6.4-8.2-6.5-13.3c0-4-1.6-7.8-4.3-10.6
	c-2.2-2.4-4.1-5.1-4.4-8.5c-1.9-5,0-9.4,2.9-13.1C8.5,35.9,11,31.7,11,26c0.1-4.4,2.5-8.8,5.7-11.8c0.2-0.1,1.8-1.2,2-1.3
	c2.6-1.3,5.3-2,6.8-1.8c1.3,0.1,2.6,0,3.9-0.1c2.4-0.1,4.7-1.1,6.6-2.6c2.5-2.2,0.5-0.2,2.3-2.2c9-6,15.7-5.6,23.7,1.3
	c2.9,2.4,6.5,3.8,10.3,3.8c9.2,0.4,15.7,7,16.1,16c0.1,1.7,0.4,3.5,0.7,5.2c1,2.1,2.3,4,3.8,5.7C99.3,45.8,99.3,54.5,92.6,61.8z"/>
</svg>
