<svg xmlns="http://www.w3.org/2000/svg" xmlns:xlink="http://www.w3.org/1999/xlink" x="0px" y="0px"
	 viewBox="0 0 213 46.1" style="enable-background:new 0 0 213 46.1;" xml:space="preserve">
<style type="text/css">
	.st0{fill:#FFFFFF;}
</style>
<g>
	<path className="st0" d="M67.1,12.6c-1.2-0.6-2.4-0.9-3.9-0.9h-4.4h-1.2h-3.8v22.6h5v-8.2h4.4c1.4,0,2.7-0.3,3.9-0.9
		c1.2-0.6,2.1-1.4,2.7-2.5c0.7-1.1,1-2.4,1-3.8c0-1.5-0.3-2.7-1-3.8C69.3,14,68.3,13.2,67.1,12.6z M65.5,20.7
		c-0.3,0.5-0.7,0.9-1.2,1.1c-0.5,0.3-1.1,0.4-1.7,0.4h-3.7v-6.6h3.7c0.6,0,1.2,0.1,1.7,0.4s0.9,0.6,1.2,1.1c0.3,0.5,0.4,1.1,0.4,1.8
		C65.8,19.6,65.8,20.2,65.5,20.7z"/>
	<path className="st0" d="M90,24.2c1.2-0.6,2-1.3,2.7-2.3c0.6-1,1-2.1,1-3.5c0-1.3-0.3-2.5-1-3.5c-0.6-1-1.5-1.8-2.7-2.4
		c-1.1-0.6-2.4-0.8-3.9-0.8H82h-1.2H77v22.6h5V25h0.5l6.7,9.3h6L88,24.8C88.6,24.7,89.3,24.5,90,24.2z M85.5,21.3H82v-5.7h3.6
		c1,0,1.8,0.3,2.3,0.8s0.8,1.2,0.8,2c0,0.9-0.3,1.6-0.8,2.1S86.5,21.3,85.5,21.3z"/>
	<rect x="100.5" y="11.8" className="st0" width="5" height="22.6"/>
	<polygon className="st0" points="127.3,25.5 116.6,11.8 113,11.8 113,34.3 118.1,34.3 118.1,20.8 128.7,34.3 132.3,34.3 132.3,11.8 
		127.3,11.8 	"/>
	<polygon className="st0" points="138.3,16.1 145.5,16.1 145.5,34.3 150.5,34.3 150.5,16.1 157.5,16.1 157.5,11.8 138.3,11.8 	"/>
	<polygon className="st0" points="175.2,24.2 167.2,11.8 163.5,11.8 163.5,34.3 168.5,34.3 168.5,21.8 173.5,29.5 176.8,29.5 
		181.7,21.9 181.7,34.3 186.7,34.3 186.7,11.8 183,11.8 	"/>
	<polygon className="st0" points="199.3,30 199.3,24.9 209.3,24.9 209.3,20.7 199.3,20.7 199.3,16.1 210.3,16.1 210.3,11.8 199.3,11.8 
		198,11.8 194.3,11.8 194.3,34.3 198,34.3 199.3,34.3 210.5,34.3 210.5,30 	"/>
	<polygon className="st0" points="34.6,20.7 30,22.9 30,30.2 34.6,28 	"/>
	<path className="st0" d="M43.6,9L25,0.2c-0.8-0.3-1.7-0.3-2.5,0L3.8,9C3,9.4,2.5,10.2,2.5,11v24.2c0,0.8,0.5,1.6,1.2,2l2.8,1.3V13
		c0.1-0.8,0.6-1.6,1.3-2l14.3-6.8c0.2-0.1,0.4-0.1,0.6-0.1c0.5,0,0.8,0.5,0.7,0.9v2.6L12,13c-0.8,0.4-1.3,1.2-1.3,2v25.5l4.3,2V17
		c0.1-0.8,0.6-1.6,1.3-2l14.2-6.8c0.2-0.1,0.4-0.1,0.6-0.1c0.5,0,0.8,0.5,0.7,0.9v2.5l-11.4,5.4c-0.8,0.4-1.3,1.2-1.3,2v25.6
		l3.2,1.5c0.2,0.1,0.4,0.1,0.6,0.1c0.5,0,0.8-0.5,0.7-0.9V21c0.1-0.8,0.6-1.6,1.3-2l14-6.5c0.2-0.1,0.4-0.1,0.6-0.1
		c0.5,0,0.8,0.5,0.7,0.9v16.8c-0.1,0.8-0.6,1.6-1.3,2l-8.8,4.2v5.9c-0.1,0.2,0,0.4,0.1,0.6c0.2,0.4,0.7,0.5,1.1,0.2l12.3-5.8
		c0.8-0.4,1.3-1.2,1.3-2V11C44.8,10.2,44.3,9.4,43.6,9z"/>
</g>
</svg>
